<svg id="logo" width="35vw" height="100%" viewBox="0 0 88 88" fill="none" xmlns="http://www.w3.org/2000/svg"><path d="M44 0C19.6952.0.0 19.6952.0 44S19.6952 88 44 88 88 68.3048 88 44 68.3048.0 44 0zm0 87.2894C20.0961 87.2894.710559 67.913.710559 44 .710559 20.087 20.0961.710559 44 .710559S87.2894 20.087 87.2894 44 67.913 87.2894 44 87.2894z" fill="#016766"/><path d="M45.849 12.453 46.0858 13.0725c16.1425 1.075 28.9143 14.5027 28.9143 30.9184.0 17.1172-13.8741 30.9913-30.9913 30.9913-17.1172.0-30.9913-13.8741-30.9913-30.9913.0-16.3793 12.699-29.7797 28.7867-30.9184L42.032 12.453C25.4978 13.4733 12.4071 27.2017 12.4071 43.9909c0 17.4543 14.1475 31.6017 31.6017 31.6017S75.6105 61.4452 75.6105 43.9909C75.6013 27.1653 62.4378 13.4096 45.849 12.453z" fill="#016766"/><path d="M44 0C19.6952.0.0 19.6952.0 44S19.6952 88 44 88 88 68.3048 88 44 68.3048.0 44 0zm0 87.2894C20.0961 87.2894.710559 67.913.710559 44 .710559 20.087 20.0961.710559 44 .710559S87.2894 20.087 87.2894 44 67.913 87.2894 44 87.2894z" fill="#016766"/><path d="M43.9087 7.36973S41.6039 20.9888 33.1956 39.9826H54.8403c-4.1449-9.1917-8.554-20.7702-10.9316-32.61287zM44.1 36.5846c-1.2389.0-2.2501-1.002-2.2501-2.2501.0-1.2389 1.002-2.2501 2.2501-2.2501 1.2389.0 2.2501 1.0021 2.2501 2.2501.0 1.239-1.0112 2.2501-2.2501 2.2501zM44.0818 50.0488l4.7917 9.1553H64.8064S60.6432 52.4538 55.888 42.26H48.1265l-4.0447 7.4973L40.037 42.26H32.1662C29.7339 47.5892 26.8188 53.2919 23.3571 59.2041h15.942l4.7827-9.1553zm7.5246 14.0108C52.3989 64.1962 52.7815 64.3784 52.7633 64.6244 52.6996 64.9979 52.071 65.1983 50.8685 65.2074 49.8118 65.1892 49.2652 65.0252 49.2196 64.7064 49.2379 64.4969 49.6387 64.3147 50.413 64.178 49.7662 64.0687 49.4292 63.8956 49.411 63.6588 49.4929 63.3126 50.0395 63.1304 51.0598 63.094 51.9708 63.1213 52.4627 63.2853 52.5265 63.5677 52.5174 63.7772 52.2167 63.9503 51.6064 64.0596zM49.8027 64.6699C49.8391 64.9706 50.2126 65.1163 50.9049 65.1254 51.6793 65.1072 52.0801 64.9797 52.1256 64.7246 52.1439 64.4877 51.6611 64.3238 50.659 64.2236 50.1124 64.3238 49.8209 64.4695 49.8027 64.6699zM49.9849 63.5859C49.9849 63.7499 50.3948 63.8865 51.2056 63.9867 51.2693 63.9958 51.3149 64.0049 51.3604 64.014 51.7886 63.9503 52.0072 63.8227 52.0346 63.6223 51.989 63.3581 51.6519 63.2124 50.996 63.2033 50.3857 63.2215 50.0486 63.349 49.9849 63.5859zM35.1815 63.3855V63.2944C35.7099 63.2853 36.0834 63.2215 36.3112 63.1031H36.4934v1.749C36.4387 65.0252 36.712 65.1072 37.3132 65.089V65.1983H35.054V65.089C35.6461 65.1072 35.9194 65.0252 35.8739 64.8521V63.5221C35.9012 63.4219 35.6735 63.3764 35.1815 63.3855zM42.0594 64.2236H42.023C41.8316 64.3875 41.4582 64.4695 40.9025 64.4695 39.9186 64.4422 39.372 64.2236 39.2718 63.8318 39.3538 63.3581 39.9459 63.1122 41.03 63.094 42.1596 63.1213 42.7791 63.431 42.8884 64.0323 42.8064 64.761 42.0776 65.1528 40.7112 65.2074 39.8822 65.1983 39.4449 65.0799 39.3994 64.843 39.4176 64.7064 39.5816 64.6244 39.8822 64.6153 40.1828 64.6244 40.3377 64.679 40.365 64.7884 40.3468 64.8886 40.2192 64.9432 39.9824 64.9523 39.9004 64.9523 39.8184 64.9523 39.7546 64.9432 39.9004 65.0434 40.2283 65.1072 40.7112 65.1163 41.5857 65.1072 42.0321 64.8612 42.0594 64.3784V64.2236zM41.0664 64.3602C41.7314 64.3693 42.0594 64.1689 42.0594 63.759 42.0594 63.3764 41.7314 63.1851 41.0664 63.1942 40.3832 63.1851 40.0461 63.3764 40.0461 63.759 40.0461 64.1689 40.3832 64.3693 41.0664 64.3602zM47.17 63.1031v1.4211H47.9807V64.6517H47.17V64.8521C47.1517 65.0161 47.3613 65.0981 47.7985 65.089V65.1983H45.6669V65.089C46.2225 65.0981 46.4867 65.0161 46.4503 64.8521V64.6517H44.4097V64.5242l2.3048-1.4211H47.17zM44.7103 64.5242h1.74V63.4675H46.423L44.7103 64.5242zM11.9882 57.6646 11.141 58.0198 6.97782 58.1383l.66501 1.5486-.8472.3553-.99296-2.3139L6.64987 57.3639 10.813 57.2546 10.23 55.9064 11.0772 55.542 11.9882 57.6646zM9.26436 59.8964 7.23289 60.9167 6.97782 60.4066l5.09238-2.569L12.3343 58.3478l-2.2227 1.1205L10.3758 59.9875l2.2227-1.1114L12.8536 59.3863 7.75215 61.9552 7.49708 61.436l2.03147-1.0203L9.26436 59.8964zM13.555 61.5726C13.2635 61.9006 12.6623 62.3378 11.7513 62.8753 10.7857 63.4401 10.0478 63.8045 9.54677 63.9503 9.12772 64.0869 8.81799 63.9776 8.61757 63.6314 8.41716 63.2853 8.49004 62.9482 8.83621 62.6111 9.23703 62.2103 9.88383 61.7548 10.7857 61.2174 11.7149 60.6708 12.3799 60.361 12.7716 60.279 13.1815 60.2062 13.4822 60.3337 13.6735 60.6525 13.8466 60.9714 13.8101 61.272 13.555 61.5726zM9.60142 62.6749C9.41012 62.848 9.35546 63.0029 9.44656 63.1577 9.51033 63.2761 9.65608 63.2944 9.86561 63.2306 10.1571 63.1304 10.6946 62.848 11.4689 62.3834 12.1521 61.9826 12.5803 61.7002 12.7352 61.5544 12.8809 61.3995 12.9265 61.2629 12.8627 61.1536 12.7989 61.0443 12.6623 61.0078 12.4528 61.0534 12.2341 61.0898 11.7787 61.3176 11.0863 61.7275 10.3302 62.1648 9.83828 62.4836 9.60142 62.6749zm.51018 3.1702L10.0569 65.7722l2.5872-2.4505L9.72896 65.2712 9.43745 64.8339l4.74615-3.1702L14.2656 61.7913 14.4751 62.101 14.5025 62.1557 11.7878 64.7246 14.8577 62.6749 15.1401 63.1122 10.4031 66.2824 10.3029 66.1275 10.1116 65.8451zM13.1633 66.8107 12.8627 66.419 13.6279 65.836 14.2383 66.6376 12.0519 68.2956 11.8971 68.414 11.6147 68.0405 11.7422 67.8857C11.56 67.8583 11.4143 67.7855 11.3232 67.6579 11.1319 67.4029 11.1501 67.1022 11.3869 66.7287 11.6511 66.3097 12.1704 65.8178 12.9265 65.2347 13.9377 64.4695 14.6482 64.0323 15.0673 63.9321 15.5227 63.8318 15.8234 63.8865 15.9873 64.1051 16.1604 64.342 16.1786 64.6062 16.0329 64.8977 15.8689 65.2347 15.5683 65.5718 15.131 65.8997L14.7849 65.4443C14.9853 65.2894 15.1219 65.1436 15.2039 65.0161 15.2859 64.8795 15.295 64.7701 15.2221 64.679 15.1492 64.588 14.9853 64.5971 14.7393 64.6973 14.466 64.8157 13.9741 65.1527 13.2726 65.6902 12.7625 66.0819 12.4163 66.3826 12.225 66.6012 12.0519 66.8198 12.0064 66.9747 12.0793 67.0658 12.1613 67.166 12.2979 67.2024 12.4983 67.166 12.6259 67.1387 12.7352 67.0931 12.808 67.0476 12.8445 67.0202 12.8718 67.002 12.8991 66.9838 12.9174 66.9747 12.9265 66.9656 12.9265 66.9656L13.1633 66.8107zM13.136 69.7714 13.0813 69.7076l2.2684-2.742-2.6601 2.2865L12.3526 68.8513 16.6797 65.1345 16.7799 65.253 17.0259 65.5354 17.0623 65.5809l-2.3959 2.8787 2.8058-2.405L17.8093 66.4554 13.4822 70.1722 13.3637 70.0356 13.136 69.7714zm2.2046.3917L14.2383 70.983 13.8374 70.573 18.4652 67.1478 18.866 67.5577 15.2859 72.067 14.8851 71.6571 15.7414 70.573 15.3406 70.1631zM16.1149 69.5892 16.3335 69.8169 17.0987 68.8604 16.1149 69.5892zM16.4793 73.1784 16.4155 73.1238l1.9404-2.988-2.3868 2.578L15.5865 72.3586l3.8808-4.1905L19.5766 68.2683 19.8499 68.5234 19.8954 68.5598l-2.0497 3.1429 2.5052-2.7148.3826.3553-3.8716 4.1905-.3826-.3553zM19.941 76.0935C19.695 75.9113 19.6221 75.6472 19.7041 75.3101 19.8134 74.9184 20.0958 74.4174 20.5331 73.807l2.1043-2.8969L23.102 71.2472 20.9977 74.1441C20.7244 74.5176 20.5513 74.7908 20.4784 74.973 20.4056 75.1461 20.4147 75.2554 20.5058 75.3192 20.5969 75.3739 20.6971 75.3557 20.8337 75.2554 20.9795 75.137 21.1981 74.8819 21.4805 74.4902l2.1044-2.8969L24.0495 71.9304 21.9451 74.8273C21.5078 75.4194 21.1343 75.8294 20.8064 76.0571 20.4784 76.2666 20.196 76.2757 19.941 76.0935zm2.3503 1.494L22.2184 77.542l1.3847-3.2795-1.8948 2.9607L21.271 76.9407 24.341 72.1308 24.4685 72.2128 24.7873 72.4132 24.8329 72.4405l-1.4576 3.4526L25.3613 72.7867 25.8076 73.06l-3.0791 4.8099L22.5828 77.7788 22.2913 77.5875zM26.3087 74.2534 26.0354 74.0985 26.4089 73.4153 27.4474 73.9892 27.0648 74.6724 26.8097 74.5267 24.7965 78.1523 25.0515 78.2981 24.678 78.9813 23.6395 78.4074 24.0221 77.7242 24.2954 77.879 26.3087 74.2534zM29.1236 74.8273 29.6428 75.0732l-3.0062 4.892L26.5546 79.9196 26.1447 79.7283 26.0536 79.6828l1.9313-5.4021L28.495 74.5267l-1.1751 3.2521L29.1236 74.8273zM30.0892 77.9701 29.7248 78.8538 29.0871 78.5896 28.5952 79.783 29.5882 80.1929 29.2238 81.0766 27.7025 80.4571 29.8706 75.1735 31.401 75.802 31.0366 76.6857 30.0345 76.2757 29.4515 77.706 30.0892 77.9701zM31.5741 81.9147 30.9273 81.6869V79.6919L30.3078 81.4683 29.7613 81.277l.7561-2.1772L30.8271 78.1979 31.6288 75.884 32.1753 76.0753 32.4486 76.1664C32.7037 76.2575 32.8586 76.4853 32.9223 76.8588 32.9679 77.1958 32.895 77.6422 32.7037 78.1979 32.5306 78.6898 32.3211 79.036 32.0751 79.2273 31.9112 79.3548 31.7472 79.4186 31.5832 79.4186L31.5741 81.9147zM31.3737 78.3892 31.5377 78.4438C31.7016 78.4985 31.8201 78.4894 31.9112 78.4256 32.0114 78.3436 32.0934 78.207 32.1571 78.0248 32.2573 77.7424 32.2938 77.5329 32.2847 77.378 32.2755 77.214 32.1844 77.0956 32.0205 77.041L31.8565 76.9863 31.3737 78.3892zm1.7035 3.9627C32.7401 82.2608 32.5488 81.7871 32.5215 80.949L33.0772 80.366C33.0863 81.031 33.1683 81.3863 33.3323 81.4318 33.4325 81.4592 33.5236 81.4227 33.6147 81.3316 33.6967 81.2405 33.7513 81.1403 33.7786 81.0401 33.8606 80.7577 33.806 80.2931 33.6329 79.6554 33.4052 78.9084 33.3505 78.3254 33.4689 77.9155 33.5691 77.5511 33.7149 77.2596 33.9153 77.0318 34.143 76.7859 34.3799 76.7039 34.6259 76.7768 34.9447 76.8679 35.1269 77.3142 35.1815 78.1068L34.6259 78.708C34.5985 78.0795 34.5165 77.7424 34.3708 77.706 34.307 77.6969 34.2432 77.7151 34.1795 77.7788 34.1157 77.8426 34.0611 77.9428 34.0246 78.0795 33.97 78.2799 34.0337 78.7171 34.225 79.4004 34.4254 80.1292 34.4619 80.7304 34.3343 81.195 34.225 81.5958 34.0519 81.9147 33.806 82.1424 33.5873 82.3519 33.3414 82.4248 33.0772 82.3519zm3.2795-4.2633L36.0561 78.0248 36.2201 77.2596 37.3679 77.5055 37.213 78.2708 36.9215 78.207 36.0743 82.2699 36.3567 82.3246 36.2018 83.0898 35.0449 82.8438 35.1998 82.0877 35.5095 82.1515 36.3567 78.0886zM38.2242 83.4269 37.6594 83.3449 38.37 78.6443 37.6412 78.535 37.7869 77.5875 39.7911 77.8973 39.6453 78.8447 38.9348 78.7354 38.2242 83.4269zM40.6474 83.7093 40.0735 83.6546 40.2739 81.4774 39.8002 77.8973 40.4196 77.961 40.6838 80.1565 41.3306 78.043 41.9501 78.0977l-1.1023 3.4252L40.6474 83.7093zM45.8308 78.6078C45.9766 79.0178 46.0677 79.7556 46.095 80.8124 46.1223 81.9329 46.0768 82.7528 45.9675 83.2629 45.8764 83.7002 45.6395 83.9188 45.2387 83.9188 44.8379 83.9279 44.5737 83.7002 44.4553 83.2356 44.3004 82.6981 44.2093 81.9056 44.182 80.8579 44.1546 79.783 44.2093 79.0542 44.3277 78.6716 44.4644 78.2708 44.7194 78.0704 45.0929 78.0612 45.4391 78.0612 45.6851 78.2434 45.8308 78.6078zM44.8652 82.5979C44.9199 82.853 45.0383 82.9714 45.2114 82.9714 45.3389 82.9714 45.43 82.8621 45.4755 82.6434 45.5302 82.3337 45.5393 81.7325 45.512 80.8397 45.4938 80.0472 45.4573 79.537 45.3936 79.3275 45.3298 79.1271 45.2296 79.0178 45.102 79.0269 44.9745 79.0269 44.8834 79.1362 44.8196 79.3366 44.7468 79.5461 44.7194 80.0472 44.7468 80.8579 44.7741 81.7142 44.8196 82.2973 44.8652 82.5979zm2.906-2.1772L47.8532 81.3772 47.0789 81.441 47.2702 83.7457 46.6963 83.7913 46.2317 78.0977 47.8987 77.961 47.9807 78.9176 46.8784 79.0087 47.006 80.4844 47.7712 80.4207zM52.1439 79.8012 52.3352 80.7395 51.6611 80.8762 51.9161 82.1424 52.9729 81.9329 53.1642 82.8712l-1.6125.3279-1.1478-5.5933L52.0163 77.2778 52.2076 78.2161 51.16 78.4256 51.4697 79.947 52.1439 79.8012zM54.6855 81.5776C54.7584 81.5594 54.7948 81.4865 54.8039 81.3499 54.813 81.2132 54.7948 81.0583 54.7492 80.8853L55.3049 80.7395C55.4234 81.1677 55.4507 81.5503 55.3869 81.8873 55.3323 82.2335 55.1774 82.4339 54.9406 82.5068 54.5944 82.5979 54.2755 82.4157 53.9749 81.9693 53.7199 81.5685 53.4739 80.9126 53.2188 79.9834 52.9364 78.9358 52.8362 78.1523 52.9091 77.624 52.982 77.1776 53.1459 76.9225 53.4101 76.8588 53.6561 76.795 53.8747 76.8679 54.0842 77.0865 54.3029 77.3325 54.4669 77.6786 54.5853 78.1159L54.0296 78.2617C53.984 78.1159 53.9294 77.9884 53.8565 77.8882 53.7836 77.7971 53.7107 77.7606 53.647 77.7788 53.5468 77.8153 53.4921 77.961 53.4921 78.2252 53.4921 78.5167 53.5923 79.0451 53.8018 79.8194 53.9931 80.5209 54.148 80.9946 54.2847 81.2496 54.4395 81.4956 54.5671 81.6049 54.6855 81.5776zm1.5304-5.0286C56.4801 76.9043 56.7807 77.5784 57.1178 78.5805 57.4731 79.6463 57.6735 80.4389 57.7099 80.9581 57.7555 81.3954 57.5824 81.6778 57.2089 81.7962 56.8263 81.9238 56.5165 81.778 56.2615 81.3772 55.9517 80.9035 55.6329 80.1747 55.3049 79.1817 54.9679 78.1615 54.7948 77.4509 54.7948 77.0501 54.8039 76.631 54.9952 76.3577 55.3505 76.2393 55.6876 76.1391 55.9791 76.2393 56.2159 76.549zM56.471 80.6484C56.5985 80.8762 56.7443 80.9581 56.9083 80.9035 57.0358 80.8579 57.0905 80.7304 57.0631 80.5118 57.0267 80.202 56.8536 79.6281 56.5712 78.7718 56.3252 78.0157 56.1339 77.542 56.0155 77.3598 55.8971 77.1867 55.7695 77.1138 55.6511 77.1594 55.5327 77.1958 55.4689 77.3233 55.4689 77.542 55.4598 77.7606 55.5873 78.2525 55.8424 79.0178 56.1248 79.8285 56.3343 80.3751 56.471 80.6484zM59.9509 80.694 59.8689 80.7304 57.9923 77.706l1.3209 3.2521L58.8304 81.1494 56.6714 75.8658 56.8172 75.8111 57.1542 75.6745 57.2089 75.6472l1.9768 3.1793L57.7919 75.4103 58.2747 75.219 60.4337 80.5026 60.2697 80.5664 59.9509 80.694zM60.2789 74.8091C60.5795 75.1279 60.9621 75.7656 61.4176 76.713 61.9004 77.7242 62.1919 78.4894 62.3012 78.9995 62.4014 79.4277 62.2648 79.7283 61.9095 79.8923 61.5451 80.0654 61.2172 79.9652 60.9165 79.5917 60.5522 79.1635 60.1513 78.4803 59.6958 77.5329 59.2312 76.5581 58.9762 75.8749 58.9306 75.4741 58.8942 75.055 59.0399 74.7635 59.377 74.6087 59.7049 74.4629 59.9965 74.5267 60.2789 74.8091zM61.035 78.8447C61.1898 79.0542 61.3447 79.118 61.4996 79.0451 61.618 78.9904 61.6544 78.8538 61.6089 78.6352 61.5269 78.3345 61.2992 77.7788 60.9074 76.9681 60.5704 76.2484 60.3244 75.802 60.1878 75.6381 60.042 75.4741 59.9145 75.4285 59.796 75.4832 59.6776 75.5378 59.6412 75.6745 59.6685 75.884 59.6867 76.1027 59.8689 76.5764 60.2242 77.3051 60.5886 78.0704 60.8619 78.5896 61.035 78.8447zM61.6909 73.4882 61.7273 73.4699 62.1646 73.224 64.9613 78.2434 64.524 78.4894 62.6474 75.1188 62.9389 76.2666 62.6656 76.4215 61.8093 75.547 63.7041 78.9449 63.2668 79.1908l-2.7875-5.0103L60.4702 74.1714 60.9074 73.9254 60.953 73.9072l1.1842 1.2389L61.6909 73.4882zM63.3033 73.4335 63.0391 73.6066 62.6201 72.9416 63.613 72.313 64.0321 72.9689 63.7861 73.1238 66.0089 76.6219 66.264 76.467 66.683 77.1229 65.6809 77.7606 65.2619 77.1047 65.5261 76.9316 63.3033 73.4335zM67.8399 75.2463C67.8946 75.2008 67.9128 75.1188 67.8673 74.9913 67.8308 74.8637 67.7579 74.7271 67.6486 74.5722L68.1132 74.2352C68.3683 74.5904 68.5323 74.9366 68.6051 75.2828 68.678 75.6289 68.6143 75.8658 68.4047 76.0207 68.1132 76.2302 67.7488 76.1755 67.3116 75.8567 66.929 75.5743 66.4644 75.0459 65.8996 74.2716 65.2619 73.3971 64.8884 72.6956 64.77 72.1764 64.6789 71.7391 64.7426 71.4385 64.9704 71.2745 65.1708 71.1287 65.4076 71.1196 65.69 71.2472 65.9816 71.402 66.2548 71.6662 66.5281 72.0306L66.0635 72.3677C65.9724 72.2401 65.8722 72.149 65.7629 72.0761 65.6627 72.0215 65.5807 72.0124 65.5352 72.0488 65.4532 72.1126 65.4532 72.2766 65.5534 72.5225 65.6536 72.7958 65.936 73.2513 66.4097 73.9072 66.8379 74.4993 67.1567 74.8819 67.3753 75.0732 67.5758 75.2646 67.7397 75.3192 67.8399 75.2463zM70.1356 74.5904C69.8623 74.8182 69.3704 74.6998 68.6689 74.2352L68.5141 73.4426C69.0606 73.8161 69.3977 73.9528 69.5343 73.8434 69.6163 73.7797 69.6437 73.6795 69.6163 73.5519 69.589 73.4335 69.5435 73.3333 69.4706 73.2513 69.2884 73.0236 68.8784 72.7958 68.259 72.5681 67.5211 72.3221 67.0109 72.0306 66.7468 71.7027 66.5099 71.4111 66.355 71.1196 66.2822 70.8281 66.2184 70.5002 66.2822 70.2633 66.4826 70.0993 66.7468 69.8898 67.2114 69.9991 67.8855 70.4091L68.0586 71.2016C67.5302 70.8554 67.2114 70.737 67.0838 70.8372 67.0383 70.8828 67.0201 70.9465 67.0292 71.0376S67.0929 71.2198 67.184 71.3383C67.3116 71.5022 67.7124 71.7026 68.3774 71.9395 69.088 72.1946 69.5981 72.5134 69.9078 72.8869 70.172 73.2057 70.3269 73.5337 70.3816 73.8617 70.4271 74.1714 70.3451 74.4173 70.1356 74.5904zM72.5497 70.5457 73.406 71.6207 73.0051 72.0306 69.425 67.5213 69.8259 67.1114 74.4536 70.5366 74.0528 70.9465 72.9414 70.1358 72.5497 70.5457zM71.9484 69.7896 72.1671 69.5619 71.1832 68.8331 71.9484 69.7896zm3.7623-.7106L75.6561 69.1428 72.5861 67.33 75.2644 69.6074 74.9273 69.9991 70.5729 66.3097 70.6731 66.1913 70.9099 65.9089 70.9555 65.8633l3.2157 1.9131L71.3563 65.3805 71.6934 64.9888 76.0478 68.6782 75.9294 68.8149 75.7107 69.079zM73.2876 63.9321C73.7157 64.0414 74.3261 64.4058 75.1368 65.0161 76.0751 65.7267 76.649 66.2824 76.8677 66.6832 77.059 67.0567 77.0499 67.3937 76.8221 67.6853L76.4122 68.2318 71.8573 64.7884 72.2673 64.2418C72.5223 63.9138 72.8685 63.8136 73.2876 63.9321zM76.0569 67.1114C76.1571 66.9838 76.1389 66.8198 76.0023 66.6103 75.8656 66.4008 75.4557 66.0364 74.7633 65.5171 74.2167 65.1072 73.8068 64.8521 73.5335 64.7428 73.3058 64.6517 73.1418 64.6791 73.0325 64.8248L72.9687 64.9159l3.0244 2.2865L76.0569 67.1114zm-1.5578-6.1491 4.0903 2.4141L79.1633 62.4198 79.9832 62.9027 79.1269 64.3511 74.2076 61.4542 74.4991 60.9623zM79.5186 60.8803 80.6573 61.6546 80.4023 62.1648 75.647 58.9217 75.902 58.4116 81.3406 60.3064 81.0855 60.8165 79.7828 60.3701 79.5186 60.8803zM78.717 60.3337 78.8627 60.0513 77.7058 59.6505 78.717 60.3337zM79.0631 57.3913 80.5298 57.783 76.9406 56.0886 77.1227 55.6695 82.2789 58.12 82.2242 58.2476 82.1058 58.53 82.0967 58.5573 80.047 58.0107 81.8143 59.1312 81.8416 59.1403V59.1494L81.7141 59.4501 81.6685 59.5594l-5.3565-1.995L76.4942 57.1453 80.2474 58.5482 78.9265 57.7192 79.0631 57.3913zM34.7169 67.3482C34.808 67.3573 34.8627 67.4666 34.89 67.6761 34.8809 67.9039 34.8627 68.0679 34.8536 68.159 34.8536 68.1954 34.8627 68.2136 34.89 68.1954h1.0932C36.2383 68.2501 36.3658 68.3321 36.3658 68.4687 36.3294 68.5416 36.302 68.7056 36.2929 68.9515V69.1246C36.2565 69.3159 36.1381 69.4161 35.9468 69.4343H34.89C34.8627 69.4343 34.8536 69.4434 34.8536 69.4708V70.737C34.8536 71.0559 34.7989 71.2198 34.6805 71.2198 34.553 71.1925 34.4983 71.0468 34.5256 70.7735V69.4708C34.5256 69.4617 34.5165 69.4434 34.4892 69.4343 34.2615 69.4343 34.0428 69.4434 33.8333 69.4525 33.642 69.4617 33.478 69.489 33.3505 69.5072 33.1045 69.571 32.977 69.489 32.9497 69.2612 32.9406 69.1702 32.9223 69.0335 32.9132 68.8604V68.414C32.9041 68.2318 32.977 68.1681 33.141 68.2045 33.1501 68.2136 33.3687 68.2227 33.7969 68.2227 34.0884 68.2136 34.3252 68.2045 34.5074 68.2045 34.5348 68.2136 34.5439 68.2045 34.5439 68.1681V67.6488C34.553 67.4848 34.6076 67.3846 34.7169 67.3482zm-1.5031 1.2662V69.0153C33.2047 69.1701 33.2867 69.243 33.4598 69.2248 34.1248 69.1975 34.4619 69.1793 34.4801 69.1701 34.5074 69.1793 34.5165 69.1701 34.5165 69.1337L34.5348 68.4049C34.5348 68.3958 34.5256 68.3776 34.4983 68.3685 34.0519 68.3776 33.6876 68.3958 33.4234 68.4049 33.2776 68.4231 33.2047 68.4869 33.2138 68.6144zM35.7099 68.3867H35.1633C35.0631 68.3867 34.9629 68.3776 34.8718 68.3685 34.8354 68.3776 34.8172 68.3958 34.8354 68.4049V69.1337C34.8263 69.1701 34.8354 69.1884 34.8718 69.1701 35.3182 69.1793 35.5915 69.1793 35.7008 69.1519 35.8921 69.161 35.9923 69.1064 35.9923 68.9788 36.0014 68.8422 36.0196 68.7238 36.0288 68.6327 36.0379 68.4869 35.9285 68.3958 35.7099 68.3867zM38.4975 67.4029C38.6797 67.4302 39.0167 67.4484 39.5178 67.4575 40.0553 67.4666 40.6474 67.4757 41.3033 67.4757 41.6586 67.5122 41.8316 67.6397 41.8043 67.8401 41.7406 67.9677 41.7041 68.1134 41.7041 68.2592 41.7041 68.2501 41.695 68.6327 41.6859 69.4161 41.6768 70.1995 41.6768 70.573 41.6859 70.5457 41.6859 70.8281 41.531 70.9283 41.2213 70.8554 40.9389 70.819 40.5654 70.7826 40.0917 70.7552 39.3629 70.7461 38.8619 70.7552 38.5886 70.7917 38.2515 70.8554 38.1149 70.737 38.1695 70.4273V68.7875C38.1604 68.2592 38.1422 67.913 38.1331 67.749 38.124 67.5213 38.2424 67.4029 38.4975 67.4029zM38.789 70.573 41.0209 70.5913C41.3033 70.6004 41.4399 70.4911 41.4399 70.2633V68.9151C41.449 68.7329 41.4581 68.4869 41.4581 68.1681 41.449 67.8766 41.3124 67.7035 41.0573 67.667 40.529 67.6579 40.1099 67.6488 39.7911 67.6488 39.454 67.6488 39.1534 67.6579 38.871 67.667 38.6159 67.6944 38.4702 67.831 38.4519 68.0679 38.4428 68.4505 38.4337 68.8331 38.4337 69.2248 38.4337 69.5983 38.4428 69.9171 38.4519 70.1813 38.4428 70.4455 38.5521 70.573 38.789 70.573zM40.037 69.2886V69.8443C40.037 69.908 40.0553 69.9445 40.0917 69.9445H40.7658C40.8842 69.9536 40.9844 69.9809 41.0755 70.0173 41.112 70.072 41.112 70.1176 41.0755 70.1722 41.0482 70.2269 41.0027 70.236 40.9207 70.2087 40.3468 70.1176 39.6453 70.1176 38.8254 70.2087 38.7617 70.2178 38.7252 70.2178 38.707 70.1904 38.6979 70.1631 38.7161 70.1176 38.7617 70.0538 38.8619 69.9536 38.9894 69.8989 39.1261 69.8989 39.1534 69.908 39.2263 69.9263 39.3538 69.9354H39.7C39.7546 69.9445 39.7729 69.9171 39.7729 69.8352V69.2795C39.7729 69.2248 39.7546 69.2066 39.7182 69.2066L39.4085 69.2248C39.1989 69.2521 39.1078 69.2612 39.117 69.243 39.0441 69.2521 38.9894 69.243 38.9621 69.2066 38.9348 69.1519 38.953 69.1064 38.9985 69.0517 39.0896 68.988 39.1807 68.9606 39.29 68.9788 39.3174 69.0062 39.454 69.0153 39.7091 68.9971 39.7455 68.9971 39.7637 68.9788 39.7637 68.9424V68.4414C39.7637 68.3685 39.7273 68.3229 39.6635 68.3229 39.29 68.3229 39.0532 68.3412 38.953 68.3776 38.8892 68.4049 38.8437 68.3958 38.8163 68.3594 38.789 68.3229 38.7981 68.2683 38.8345 68.2045 38.9074 68.0861 39.0259 68.0405 39.1807 68.0496 39.4085 68.077 39.6453 68.0952 39.8913 68.1043 40.1372 68.1134 40.4014 68.1134 40.6747 68.1043 40.7658 68.1043 40.8296 68.1316 40.866 68.1772 40.9207 68.2683 40.8934 68.3138 40.7931 68.332H40.5016C40.3377 68.3229 40.2101 68.3138 40.119 68.3138 40.0553 68.3138 40.0188 68.3503 40.0188 68.414 40.0188 68.4231 40.0097 68.5142 40.0006 68.6873 39.9915 68.8513 39.9915 68.9333 40.0006 68.9333 40.0006 68.9697 40.0188 68.9879 40.0553 68.9879H40.6292C40.702 68.9879 40.7476 69.0244 40.7658 69.1064 40.7658 69.1701 40.7294 69.2066 40.6656 69.2066H40.0461C40.0553 69.2157 40.037 69.243 40.037 69.2886zM40.5199 69.3888C40.5745 69.3159 40.6474 69.3068 40.7476 69.3706 40.8478 69.4617 40.8478 69.5436 40.7476 69.6165 40.6292 69.7076 40.5016 69.7805 40.365 69.826 40.3103 69.8352 40.283 69.8352 40.2648 69.8078 40.2374 69.7805 40.2466 69.7532 40.283 69.7076 40.3832 69.5892 40.4652 69.4799 40.5199 69.3888zm7.2786-2.0406C47.9352 67.3755 47.9807 67.5122 47.9352 67.7672 47.9261 67.8674 47.9261 68.077 47.9534 68.3867 47.9534 68.4414 47.9625 68.4687 47.9716 68.4869 48.3269 68.4778 48.7004 68.4596 49.083 68.4505 49.1832 68.4505 49.2561 68.4869 49.2925 68.5507 49.3199 68.6236 49.2652 68.66 49.1377 68.6509H48.008C48.0718 69.1246 48.3087 69.5528 48.7186 69.9354 49.1012 70.318 49.4838 70.5457 49.8482 70.6095 49.9849 70.6368 49.9302 70.7097 49.6751 70.819 49.4474 70.9192 49.247 70.901 49.083 70.7644 48.8553 70.5639 48.664 70.3453 48.5091 70.1084 48.1538 69.6347 47.917 69.1519 47.7985 68.6509 47.7074 68.66 47.6254 68.6691 47.5526 68.6691 46.9331 68.6782 46.4594 68.7238 46.1132 68.7875 45.9219 68.824 45.8126 68.8331 45.7853 68.8058 45.7488 68.7693 45.7944 68.6964 45.9219 68.5962 45.9948 68.496 46.1132 68.4596 46.2681 68.496 46.2772 68.5051 46.5596 68.5142 47.0971 68.5142 47.4068 68.5051 47.6254 68.496 47.7712 68.496 47.7165 68.2501 47.6892 67.9859 47.671 67.7126 47.6437 67.4302 47.6801 67.3118 47.7985 67.3482zM46.8784 68.9242C47.0606 68.988 47.1244 69.079 47.0697 69.1975 47.0333 69.2248 47.0151 69.3068 47.0333 69.4434 47.0333 69.5163 47.0698 69.5436 47.1335 69.5163 47.2611 69.4617 47.3704 69.3797 47.4615 69.2704 47.5161 69.2157 47.5617 69.2612 47.6163 69.3888 47.6437 69.5254 47.589 69.5983 47.4615 69.5801 47.4341 69.5801 47.3886 69.5892 47.3066 69.5983H47.1335C47.0606 69.6256 47.0242 69.6621 47.0333 69.7167 47.0242 69.7532 47.006 69.8169 46.9969 69.8898V70.0629H47.3248C47.507 70.0538 47.6346 70.0447 47.7074 70.0447 47.7712 70.0538 47.8076 70.0811 47.8076 70.1176 47.7985 70.154 47.753 70.1813 47.6892 70.1904 46.9604 70.2633 46.4958 70.3362 46.3045 70.4 46.2954 70.4091 46.2772 70.4182 46.2681 70.4182 46.0859 70.5093 45.9766 70.5275 45.9401 70.4728 45.8399 70.3817 45.9037 70.2906 46.1314 70.1813 46.1952 70.1449 46.2225 70.072 46.2043 69.9718 46.1952 69.8534 46.1679 69.7441 46.1314 69.6256V69.571C46.1041 69.407 46.1314 69.3159 46.2043 69.2977 46.3683 69.325 46.4503 69.4161 46.4321 69.5892 46.4047 69.7258 46.3956 69.8625 46.4138 69.9718 46.4047 70.072 46.4321 70.1084 46.5141 70.0902H46.6871C46.7509 70.0811 46.8056 70.072 46.842 70.072V69.5163C46.8329 69.3523 46.8056 69.2248 46.7873 69.1519 46.7054 69.0062 46.7327 68.9242 46.8784 68.9242zM46.7236 67.8492C46.7509 67.8766 46.8147 67.8948 46.9149 67.9039 47.006 67.913 47.17 67.913 47.4159 67.9039 47.4706 67.913 47.507 67.9494 47.5343 68.0041 47.5343 68.0588 47.507 68.077 47.4615 68.077 47.1517 68.077 46.9331 68.0861 46.8056 68.0952H46.341C46.2225 68.1043 46.1588 68.0952 46.1497 68.0588 46.1406 68.0041 46.177 67.9585 46.2681 67.9039 46.4685 67.8037 46.6234 67.7855 46.7236 67.8492zM48.6093 67.6397C48.6457 67.5668 48.7186 67.5851 48.8188 67.6944 48.8735 67.7946 48.8553 67.8766 48.7824 67.9221 48.664 68.0132 48.5729 68.1043 48.5091 68.1954 48.4818 68.2318 48.4544 68.2501 48.4362 68.2318 48.4089 68.2045 48.3998 68.1681 48.418 68.1134 48.418 68.1043 48.4271 68.077 48.4362 68.0405 48.4818 67.9039 48.5455 67.7672 48.6093 67.6397zM51.1782 68.6964C51.3695 68.906 51.488 69.0244 51.5244 69.0608 51.5517 69.1155 51.5517 69.1519 51.5426 69.1793 51.5335 69.2066 51.4971 69.2066 51.4424 69.1793 51.2784 69.1246 51.1327 69.079 50.996 69.0426 50.8594 69.0153 50.823 68.9333 50.8958 68.7966 50.996 68.66 51.0871 68.6327 51.1782 68.6964zM51.8524 69.5801C51.8888 69.5254 51.9252 69.5072 51.9708 69.5254 51.9981 69.5527 51.9981 69.5983 51.9708 69.6621 51.907 69.7349 51.825 69.8716 51.7248 70.0447 51.5882 70.2633 51.4789 70.4182 51.4151 70.5093 51.324 70.6277 51.2238 70.6277 51.1054 70.5093 50.9687 70.3817 50.9596 70.2906 51.0871 70.236 51.3058 70.1176 51.5608 69.8989 51.8524 69.5801zM51.3878 67.5759C51.5244 67.7035 51.6428 67.8219 51.7339 67.9221 51.7613 67.9768 51.7613 68.0223 51.7339 68.0588 51.7066 68.0861 51.6793 68.0861 51.6337 68.0588 51.4242 67.9677 51.2784 67.8948 51.1691 67.8492 51.0325 67.8128 51.0052 67.7308 51.1145 67.6033 51.2147 67.5213 51.3058 67.5122 51.3878 67.5759zM54.1571 67.7308C54.2847 67.7308 54.3393 67.8219 54.312 68.0041 54.1753 68.6964 54.0114 69.161 53.8292 69.3888 53.8018 69.4434 53.8201 69.4799 53.8656 69.5072 54.5488 70.0811 54.977 70.3909 55.1683 70.4273 55.223 70.4546 55.2412 70.4819 55.2412 70.5002 55.2412 70.5275 55.223 70.5457 55.1865 70.5548 54.8403 70.7461 54.6035 70.7461 54.476 70.5548 54.3849 70.4637 54.2938 70.3635 54.1845 70.2451 54.0478 70.0811 53.8747 69.8898 53.6834 69.6712 53.647 69.6347 53.6105 69.6347 53.5832 69.6712 53.2097 70.072 52.8089 70.3089 52.3716 70.4 52.1439 70.4546 51.989 70.4455 51.907 70.3817 51.8433 70.3089 51.8615 70.236 51.9617 70.1722 52.6176 70.072 53.1004 69.8534 53.4192 69.5163 53.4466 69.5072 53.4466 69.4708 53.4192 69.4161 53.0731 69.1064 52.8089 68.8969 52.6358 68.7784 52.5629 68.7147 52.5629 68.66 52.6358 68.6053 52.7269 68.5507 52.818 68.5689 52.9273 68.6418L53.1004 68.8149C53.319 69.0244 53.4739 69.161 53.565 69.2339 53.6014 69.2886 53.6379 69.2795 53.6652 69.2157 53.8292 68.9333 53.9385 68.5962 53.9931 68.2136 54.0023 68.0314 53.9203 67.9312 53.7472 67.9039 53.237 67.913 52.8544 67.9677 52.5902 68.0588 52.4536 68.0952 52.3989 68.0405 52.4354 67.8857 52.4991 67.7673 52.5994 67.7126 52.7451 67.7126h1.412V67.7308z" fill="#016766"/><path d="M11.7605 40.8481C11.2777 40.7387 7.66111 40.0282 7.66111 40.0282 6.86856 39.764 6.47684 39.2083 6.47684 39.2083 6.41308 38.5888 5.83916 38.7528 5.83916 38.7528 3.9079 35.1818 3.01515 38.935 3.01515 38.935 2.69631 39.0352 2.55966 38.8439 2.55966 38.8439 2.24993 38.6891 1.83088 38.7528 1.83088 38.7528 1.32985 39.0534 1.2843 39.2083 1.2843 39.2083 1.20231 39.8824 1.64869 40.1193 1.64869 40.1193L3.10624 40.2104l1.00207 1.002C4.27229 41.4948 4.19941 41.759 4.19941 41.759 3.87146 42.2783 3.83502 42.3967 3.83502 42.3967 3.85324 42.6336 4.10831 42.8522 4.10831 42.8522L4.6549 42.9433C5.7754 43.0982 6.29465 42.5789 6.29465 42.5789 6.51328 42.0688 7.02343 41.4857 7.02343 41.4857L7.11453 40.5748 11.4872 41.2124C12.4437 41.2671 11.7605 40.8481 11.7605 40.8481zM3.74393 38.9623C3.75304 38.7528 4.05366 38.4795 4.05366 38.4795 5.2197 39.3176 4.94641 39.5909 4.94641 39.5909 4.22674 39.7276 3.74393 38.9623 3.74393 38.9623zM6.03958 41.258S4.746 41.422 4.36339 40.429C4.36339 40.429 5.20148 40.4563 5.6843 40.5292c-.00911000000000062.0.38261.3917.35528.7288zM14.9762 28.8688C14.5845 28.641 13.218 27.9578 13.218 27.9578 12.7808 27.5843 13.3638 27.3201 13.5096 27.2746 13.5278 27.2654 13.5369 27.2654 13.5369 27.2654 13.628 27.229 14.129 26.9739 14.129 26.9739 14.5025 26.6187 14.1837 26.0083 14.1837 26.0083 14.1017 25.8899 13.8011 25.8625 13.8011 25.8625l-2.0042-1.8674C11.0226 23.6853 10.5398 24.3594 10.5398 24.3594 9.59237 24.8878 9.37374 26.0539 9.37374 26.0539 9.30086 26.9466 9.6197 27.3383 9.6197 27.3383 9.92032 27.9578 9.45573 27.73 9.45573 27.73 9.29175 27.557 8.70873 26.9739 8.70873 26.9739 8.55386 26.5731 7.89796 25.3706 7.89796 25.3706 7.5609 24.6236 7.22384 25.152 7.22384 25.152 6.95055 25.7897 6.56794 25.0609 6.56794 25.0609 6.25821 24.6054 6.13067 25.0336 6.13067 25.0336 5.91204 25.6257 6.79569 26.2178 6.79569 26.2178 7.2785 26.4182 7.23295 26.6278 7.23295 26.6278 7.22384 27.3019 7.44248 27.9031 7.44248 27.9031 8.12571 28.3677 8.41722 27.6298 8.41722 27.6298 8.55386 27.3839 8.73606 27.4932 8.73606 27.4932 8.98202 27.7027 9.96587 28.6137 9.96587 28.6137 10.3485 28.969 9.91121 29.2332 9.91121 29.2332 10.2574 30.1897 12.1978 30.5176 12.1978 30.5176 13.5915 30.381 12.5804 29.7797 12.5804 29.7797 12.1704 29.5793 11.1957 29.1512 11.1957 29.1512 10.476 28.7321 10.6673 28.1764 10.6673 28.1764 10.9224 28.2493 11.0499 28.14 11.0499 28.14 11.2959 27.6663 11.3505 28.0033 11.3505 28.0033 11.4325 28.6046 12.9265 28.7412 12.9265 28.7412 13.0267 28.5135 13.2727 28.477 13.2727 28.477 13.792 28.7321 14.6301 29.1147 14.6301 29.1147 15.7597 29.4609 14.9762 28.8688 14.9762 28.8688zm-4.6733-1.658S10.0934 27.6207 9.91121 27.0833C9.91121 27.0833 9.89299 26.9102 10.1116 26.9557c0 0 .246.0911000000000009.1913.255099999999999zM12.4619 27.0833C12.0793 27.3748 11.9609 26.9011 11.9609 26.9011 11.8607 26.5093 11.6147 26.7006 11.6147 26.7006 11.1228 27.3383 10.9133 26.4911 10.9133 26.4911 10.886 25.8443 10.5033 25.9445 10.5033 25.9445 10.1116 25.9901 10.0661 26.5913 10.0661 26.5913 10.0023 26.9922 9.84744 26.8646 9.84744 26.8646 9.66525 26.5184 9.92032 25.9536 9.92032 25.9536 10.0114 25.2613 10.4942 24.8787 10.4942 24.8787 11.1501 24.241 11.8243 25.0427 11.8243 25.0427 12.7626 25.5619 12.9994 26.2907 12.9994 26.2907c.1913.8108-.5375.7926-.5375.7926zM25.1518 16.853C25.0516 16.6617 24.6143 16.1242 24.6143 16.1242 24.4686 15.8965 24.3137 15.8145 24.3137 15.8145 24.004 15.6688 22.4644 13.9926 22.4644 13.9926 22.2093 13.7193 22.3369 13.5006 22.3369 13.5006 22.4371 13.3185 22.3369 13.2182 22.3369 13.2182L22.0545 12.7354C21.8723 12.5168 22.2367 12.2799 22.2367 12.2799 22.4098 12.1342 22.3187 11.9611 22.3187 11.9611L21.9087 11.5421C21.7903 11.3325 21.5443 11.5512 21.5443 11.5512 21.1708 11.9611 20.8611 11.7334 20.8611 11.7334 20.5514 11.5876 20.606 11.2232 20.606 11.2232 20.1414 10.9499 20.4876 10.7313 20.4876 10.7313 20.3054 10.1847 19.6313 9.74744 19.6313 9.74744 18.9481 9.73833 19.0392 10.0936 19.0392 10.0936c.7287.7288 1.1933 1.4576 1.1933 1.4576C20.4238 12.034 21.0342 12.7628 21.0342 12.7628v.3552C20.7336 13.3822 20.6151 14.4481 20.6151 14.4481 20.6151 15.523 21.0706 14.9946 21.0706 14.9946 21.599 13.3185 21.7539 14.5027 21.7539 14.5027 22.1456 16.5342 21.6263 16.1971 21.6263 16.1971 21.2164 16.2245 19.0301 13.1636 19.0301 13.1636 18.6748 12.8812 18.9663 12.5441 18.9663 12.5441 19.1576 12.4986 19.0938 12.1524 19.0938 12.1524 18.775 11.6423 18.0644 11.6969 18.0644 11.6969 17.2354 11.7334 17.3721 12.5623 17.3721 12.5623 17.445 13.2729 17.782 14.3479 17.782 14.3479 17.7274 15.1222 17.3356 14.4936 17.3356 14.4936c-.664999999999999-.9474-.4099.0-.4099.0 1.4393 3.1064 2.8058 2.6692 2.8058 2.6692C20.187 16.516 20.269 16.9441 20.269 16.9441 20.2963 17.3176 20.6334 19.9139 20.6334 19.9139 21.1435 21.1073 21.1891 20.2874 21.1891 20.2874c-.273299999999999-.3735.0-2.4687.0-2.4687C21.4532 17.5636 22.2002 17.5454 22.2002 17.5454 22.5191 17.3814 22.3369 17.0443 22.3369 17.0443 22.1456 16.6799 22.3915 16.3611 22.3915 16.3611 22.6922 15.7599 22.4735 15.441 22.4735 15.441 22.3369 14.4116 23.011 15.4775 23.011 15.4775l1.6762 2.0041C25.0971 17.8004 25.2156 17.518 25.2156 17.518 25.2702 17.1901 25.1518 16.853 25.1518 16.853zM18.192 13.118S18.8843 13.7648 18.5928 14.029c0 0-.628599999999999.5466-.4008-.911zm1.4484 3.316S19.2851 16.6891 18.9207 15.9421C18.9207 15.9421 18.5563 15.441 18.4379 15.0402 18.4379 15.0402 18.4015 14.5938 18.6474 14.9035 18.6474 14.9035 18.8661 15.0402 18.9663 14.6394c0 0 .3188-.5284.573899999999998.0C19.5402 14.6394 19.7133 14.94 19.7953 15.1677 19.7862 15.1768 19.8773 16.0696 19.6404 16.434zM21.1253 16.9441C21.0069 16.8986 20.7609 16.4522 20.7609 16.4522 20.7245 16.3975 20.8611 16.3064 20.8611 16.3064 21.0069 16.3247 21.2073 16.6344 21.2073 16.6344 21.3713 16.9715 21.1253 16.9441 21.1253 16.9441z" fill="#016766"/><path d="M18.7934 15.1039s.3735-.3279.637700000000002.0c0 0 .145699999999998.2186.0.5557C19.4311 15.6596 18.8025 15.7325 18.7934 15.1039zM33.8973 2.81487S34.4166 3.20659 34.6261 3.34324C34.6261 3.34324 34.8721 3.5892 34.5168 3.9627 34.5168 3.9627 34.453 3.94448 34.3801 4.30887 34.3801 4.30887 33.788 5.19251 33.624 5.38382 33.624 5.38382 33.3325 6.13993 34.034 5.65711 34.034 5.65711 34.4712 5.82108 34.2799 6.40411 34.2799 6.40411 34.034 6.85959 34.1433 7.22398 34.1433 7.22398 34.781 7.2422 34.617 7.90721 34.617 7.90721 34.371 8.28982 34.3164 8.65421 34.3164 8.65421 34.1342 9.41032 34.5988 8.62688 34.5988 8.62688 34.9814 8.34448 34.8356 8.87285 34.8356 8.87285 34.5259 9.74738 34.617 10.2393 34.617 10.2393 34.5806 11.1594 34.2162 11.3689 34.2162 11.3689 33.9338 11.6695 33.5694 11.0227 33.5694 11.0227 33.3234 10.5764 33.4236 10.1027 33.4236 10.1027 33.5512 10.048 33.5238 9.45587 33.5238 9.45587 33.5967 9.37388 33.7334 8.84552 33.7334 8.84552 33.87 8.31715 33.7425 7.93454 33.7425 7.93454 33.3963 7.9892 33.4054 7.36063 33.4054 7.36063 33.4965 6.52253 33.0866 7.40618 33.0866 7.40618 32.9317 8.25338 32.4762 7.84345 32.4762 7.84345 32.0025 7.7068 32.3578 6.99624 32.3578 6.99624 33.1959 5.47492 33.2961 5.23806 33.2961 5.23806 33.3872 5.01032 33.4601 4.46374 33.4601 4.47284 33.4601 2.76933 33.8973 2.81487zm1.8038 1.16605S36.1565 3.31591 36.3205 3.11549c0 0 1.1661-.18219 1.412.0C37.7325 3.11549 38.188 3.50721 37.2497 3.84427 37.2497 3.84427 36.9491 3.98092 36.5483 3.8716 36.5483 3.8716 36.3023 4.37264 35.865 4.28154 35.8741 4.29065 35.6555 4.0538 35.7011 3.98092zm3.161 6.39498C38.6162 9.62895 37.851 10.0571 37.851 10.0571 37.022 10.0298 37.6232 8.87285 37.6232 8.87285 38.0058 8.41736 37.7325 8.14407 37.7325 8.14407 37.3955 8.03475 36.9309 6.70473 36.9309 6.70473 36.7031 6.17636 36.8671 5.67533 36.8671 5.67533 37.2133 5.42026 37.523 5.70266 37.523 5.70266 38.598 5.72999 38.0423 5.03765 38.0423 5.03765 37.9056 4.92833 36.9218 4.49106 36.9218 4.49106 36.5392 4.08113 36.2385 4.62771 36.2385 4.62771 36.1201 4.87367 36.2112 5.0832 36.2112 5.0832 36.3023 5.23806 36.2294 5.5569 36.2294 5.5569 36.1565 5.66622 36.0472 5.81198 36.0472 5.81198 35.8833 5.74821 35.3458 5.81198 35.3458 5.81198 35.1909 5.97595 35.2729 6.63185 35.2729 6.63185 35.2911 6.81405 35.4369 6.79583 35.4369 6.79583 35.5006 7.47906 36.4116 7.6157 36.4116 7.6157 36.612 7.7979 36.5209 8.09852 36.5209 8.09852c-.109299999999998.36439-.3917.5648-.3917.5648C35.8559 9.05504 36.4389 9.68361 36.4389 9.68361 36.8671 10.4306 36.4389 10.5308 36.4389 10.5308 36.029 11.1685 35.9561 11.1867 35.9561 11.1867 35.9561 12.4348 36.7122 11.7971 36.7122 11.7971 37.0493 11.46 37.6961 11.4509 37.6961 11.4509 37.8783 11.2869 38.3611 11.1776 38.3611 11.1776 39.0261 10.9954 38.8621 10.3759 38.8621 10.3759zM36.2659 6.52253C35.9926 6.65918 35.9652 6.36767 35.9652 6.36767V6.29479C36.0837 6.04883 36.2659 6.29479 36.2659 6.29479v.22774zM56.5077 12.1068c-1.4758-.4282-2.1135-1.5487-2.1135-1.5487-.273299999999999-.1548-.3461-.5465-.3461-.5465C54.8224 9.32833 55.3052 8.37181 55.3052 8.37181 55.6696 7.9892 55.1686 7.27864 55.1686 7.27864 54.7313 6.89603 54.5582 7.36974 54.5582 7.36974 54.6311 8.11674 53.9205 9.08237 53.9205 9.08237 53.4924 9.60162 53.5288 9.08237 53.5288 9.08237 53.2373 8.53578 52.8911 8.42647 52.8911 8.42647 52.3263 8.40825 52.7818 8.03475 52.7818 8.03475 52.9458 7.8981 53.1189 7.47906 53.1189 7.47906 53.4559 7.07823 53.5015 7.36063 53.5015 7.36063 53.8476 7.60659 54.0663 7.38796 54.1118 7.36063 54.1574 7.3333 54.8497 6.87781 54.8497 6.87781 55.0866 6.63185 55.4418 6.72295 55.4418 6.72295 55.6969 7.02357 55.9611 6.90514 55.9611 6.90514 56.0522 6.69562 56.1888 6.7685 56.1888 6.7685 57.1454 6.60452 56.6717 5.74821 56.6717 5.74821 56.3984 5.44759 55.4236 5.94862 55.4236 5.94862 54.3305 6.46788 54.8406 5.92129 54.8406 5.92129 55.0228 5.69355 56.1342 4.64593 56.1342 4.64593 56.5897 3.98092 56.0613 3.55276 56.0613 3.55276 55.8973 3.23392 55.451 3.71674 55.451 3.71674 55.287 3.9627 53.1098 7.01446 53.1098 7.01446 52.5814 7.44262 52.7454 6.95069 52.7454 6.95069 52.8547 6.74117 52.381 6.65007 52.381 6.65007 51.6977 6.72295 52.2626 6.01239 52.2626 6.01239c.4099-.61946 1.002-.79255 1.002-.79255C53.7201 4.69148 53.2464 4.35442 53.2464 4.35442 52.882 4.08113 52.3172 4.35442 52.3172 4.35442 52.1077 4.44552 51.1603 4.41819 51.1603 4.41819 50.8141 4.46374 50.7048 4.91922 50.7048 4.91922 50.5499 5.67533 50.9781 5.76643 50.9781 5.76643 51.2331 6.1126 51.4153 6.0215 51.4153 6.0215 51.5338 6.23102 51.2514 6.79583 51.2514 6.79583 50.8688 7.142 50.7686 7.58837 50.7686 7.58837 50.6137 8.63599 50.3768 7.86166 50.3768 7.86166 50.1035 7.36063 49.9396 7.90721 49.9396 7.90721 49.7483 8.28071 49.5205 8.40825 49.5205 8.40825 49.2017 8.65421 49.2472 9.02771 49.2472 9.02771 49.1379 9.84759 49.7027 10.5764 49.7027 10.5764 50.6866 10.8679 51.4518 9.54696 51.4518 9.54696 52.3901 8.24427 51.7251 10.294 51.7251 10.294 51.634 10.7494 51.889 11.1867 51.889 11.1867 52.299 11.6695 52.9093 10.9863 52.9093 10.9863 53.4104 10.4853 53.6654 11.0592 53.6654 11.0592 53.9114 11.4873 54.7586 12.453 54.7586 12.453 55.624 12.6898 56.1888 12.5441 56.1888 12.5441 57.0178 12.4256 56.5077 12.1068 56.5077 12.1068zM50.477 9.4832S50.0216 9.80204 50.1764 9.00949C50.1764 9.00949 50.4224 8.62688 50.3404 8.46291 50.3404 8.46291 50.4588 8.26249 50.6137 8.39003 50.6137 8.39003 50.6775 9.31011 50.477 9.4832zM51.634 8.59955C51.4062 8.8273 51.2514 8.59955 51.2514 8.59955 51.2787 8.43558 51.7342 7.85255 51.7342 7.85255H52.217C52.3172 7.9892 51.634 8.59955 51.634 8.59955zm1.1387 1.87665C52.0986 10.549 52.7454 9.74738 52.7454 9.74738 52.9822 9.6745 53.046 9.91135 53.046 9.91135 53.4013 10.2029 52.7727 10.4762 52.7727 10.4762zm15.1768 1.4757S67.4849 12.3163 67.6944 12.6352C67.6944 12.6352 68.0224 13.3548 68.6054 13.0542 68.6054 13.0542 68.9242 12.6989 69.0427 12.6898 69.0427 12.6898 69.2704 12.6443 69.1793 12.1979 69.1793 12.1979 69.2522 12.125 69.2613 11.9428 69.2613 11.9428 69.4526 11.9155 69.4526 11.6604 69.4526 11.6604 69.3615 11.1229 68.8149 11.3051L67.9495 11.9519zM67.1296 12.9358S67.1387 13.619 66.8472 13.8923C66.8472 13.8923 65.9909 14.5846 65.3623 13.9834 65.3623 13.9834 65.3168 13.8468 65.6903 13.6372 65.6903 13.6372 66.3371 12.9176 66.5193 12.7718 66.5284 12.7809 66.7926 12.6078 67.1296 12.9358z" fill="#016766"/><path d="M71.2196 14.5483S70.1264 14.5938 70.9554 15.2771C70.9554 15.2771 71.2652 15.6415 70.7459 15.8783 70.7459 15.8783 70.1902 16.3338 69.9169 15.7781 69.9169 15.7781 69.6527 15.1951 69.3703 15.3773c0 0-.400800000000004.3462.0.5466C69.3703 15.9239 69.6436 16.0696 69.3794 16.3247 69.3794 16.3247 68.9786 16.9168 68.4138 16.5342 68.4138 16.5342 66.191 16.8531 66.7832 17.2448 66.7832 17.2448 66.9745 17.4088 67.2478 17.1628 67.2478 17.1628 67.6941 16.9897 67.7123 17.4361 67.7123 17.4361 67.6395 18.01 67.3389 18.3379 67.3389 18.3379 66.5554 19.0485 66.2366 18.2651 66.2366 18.2651 66.3823 17.6274 65.9997 17.6638 65.9997 17.6638 64.5604 17.8551 65.5169 17.017 65.5169 17.017 65.9724 16.5342 66.6921 16.4796 66.6921 16.4796 68.1405 16.1516 67.9037 15.8965 67.9037 15.8965 67.9401 15.8145 67.7123 15.6688 67.7123 15.6688 67.6759 15.4319 67.8763 15.4046 67.8763 15.4046 68.0859 15.0402 67.4117 15.0858 67.4117 15.0858 67.0018 14.94 67.0656 14.858 67.0656 14.858 66.5827 14.6758 66.2366 15.0402c0 0-.7106.0910999999999991-1.0385.4008C65.1981 15.441 64.6879 15.6232 64.4602 15.8145 64.4602 15.8145 63.95 15.7417 63.8589 15.8692L62.9389 16.4704S62.6291 16.5615 62.4743 16.3247C62.4743 16.3247 62.037 15.9603 62.3832 15.5048 62.3832 15.5048 62.9844 14.9127 63.2759 14.858 63.2759 14.858 63.6767 14.7305 63.8316 14.9309 63.8316 14.9309 64.2051 15.0311 64.697 14.8398 64.697 14.8398 65.9451 14.5392 66.2548 14.5574 66.2548 14.5574 66.6465 14.4663 66.9745 14.2477 66.9745 14.2477 67.9765 13.9197 68.2589 14.1292 68.2589 14.1292 69.2428 14.7214 69.6983 14.3661 69.6983 14.3661 71.0647 13.9471 71.502 13.2912 71.502 13.2912 71.7844 12.9177 72.2672 13.2092 72.2672 13.2092 72.5678 13.5736 72.1852 13.9926 72.1852 13.9926 71.8846 14.3206 71.6569 14.4754 71.6569 14.4663 71.4473 14.5119 71.2196 14.5483zm5.6845 10.4944S77.0863 25.981 77.9972 25.9992c0 0 2.35029999999999.0 3.18839999999999-.7288C81.1856 25.2704 81.714 25.9992 80.8668 26.7098c0 0-1.05669999999999.0-1.4302-.3917C79.4366 26.3181 78.4983 26.5731 78.7442 26.9102 78.7442 26.9102 79.0449 27.5934 78.9264 27.8667 78.9264 27.8667 78.6076 28.4862 78.1977 27.8667 78.1977 27.8667 77.7604 27.5023 77.7604 27.1562 77.7604 27.1562 77.4142 26.5367 76.7583 26.81c0 0-1.1842.227700000000002-1.3664 2.1863.0.0-.209600000000009.7561.0 1.3209C75.3919 30.3172 75.6651 30.9367 75.073 30.4994 75.073 30.4994 74.2531 29.8618 74.4353 28.9963 74.4353 28.9963 75.0092 27.7847 75.2552 27.4477 75.2552 27.4477 75.8018 26.9466 74.7542 27.1288 74.7542 27.1288 74.2531 27.2199 73.5244 26.8282 73.5244 26.8282 72.9778 26.2543 72.75 25.48 72.75 25.48 72.6316 24.7694 73.0507 25.2522 73.0507 25.2522 73.9799 26.8009 75.6014 26.3454 75.6014 26.3454 76.4941 26.3181 76.0842 25.7715 76.0842 25.7715 75.8109 25.4982 76.2208 25.3342 76.2208 25.3615 76.6308 24.9972 76.9041 25.0427zM85.9865 40.5019S85.0573 40.3379 84.5927 40.0647C84.5927 40.0647 83.8366 40.0373 84.4834 39.7185 84.4834 39.7185 86.8974 40.0191 86.1687 39.1719 86.1687 39.1719 83.5997 39.2903 82.4974 39.6274 82.4974 39.6274 81.5865 39.7914 81.8142 39.0808 81.8142 39.0808 82.2697 38.9168 82.6979 39.0808 82.6979 39.0808 83.7273 39.3085 83.0896 38.8348 83.0896 38.8348 82.3608 38.7164 83.1989 38.4978 83.1989 38.4978 84.1827 38.5433 84.538 38.7437 84.538 38.7437 85.3579 39.0808 85.3852 38.4978 85.3852 38.4978 85.7678 38.0605 85.449 37.9239 85.449 37.9239 83.4722 38.0332 82.789 38.1243 82.789 38.1243 81.7687 38.3793 81.5136 38.6071 81.5136 38.6071 81.2859 38.8804 81.0126 38.4431 81.0126 38.4431 80.2109 37.9421 80.0378 37.2589 80.0378 37.2589 79.801 36.8216 79.4366 36.9856 79.4366 36.9856 78.9993 37.2133 79.2635 37.5777 79.2635 37.5777 80.5571 38.516 80.9215 39.099 80.9215 39.099 81.2221 39.4361 80.7393 39.345 80.7393 39.345 80.22 39.3723 80.5844 39.846 80.5844 39.846 81.1492 40.3471 80.5115 40.3471 80.5115 40.3471 80.0925 40.5019 79.7554 40.8936 79.7554 40.8936 79.3455 41.0303 79.2544 40.4108 79.2544 40.4108 78.7807 39.9827 78.6805 39.3814 78.6805 39.3814 77.9061 38.8166 78.1339 39.6547 78.1339 39.6547 78.3434 40.4017 78.6987 40.5384 78.6987 40.5384 78.8353 40.9665 78.5347 40.9483 78.5347 40.9483 77.5782 41.0394 77.4233 40.9301c0 0-.3553.0-.364400000000003-.592200000000005C77.0589 40.3379 76.8494 39.2721 76.4395 40.0009 76.4395 40.0009 76.3757 40.757 76.6035 40.9847 76.6035 40.9847 76.9952 41.3947 77.3596 41.3491L78.9811 41.3309S79.2271 41.668 78.9629 41.8502C78.9629 41.8502 78.7625 43.4626 79.7645 42.415c0 0 .182200000000009-.291499999999999.0-.7288C79.7645 41.6862 79.6279 41.4767 80.056 41.3856 80.056 41.3856 80.6208 41.176 80.8304 40.8572 80.8304 40.8572 81.1037 40.6021 81.2676 40.9301 81.2676 40.9301 82.3335 41.6133 81.8324 40.3835 81.8324 40.3835 81.6958 39.4907 82.3517 40.8663 82.3517 40.8663 83.2353 42.415 82.0328 41.4402 82.0328 41.4402 81.714 41.5313 82.2606 42.0506 82.2606 42.0506 82.6432 42.2783 82.6068 42.5334 82.6068 42.5334 82.7707 43.1437 83.1989 42.5789 83.1989 42.5789 83.5815 42.2874 83.4722 42.0141 83.4722 42.0141 82.8801 41.3491 83.3538 41.3036 83.3538 41.3036 83.791 41.0121 83.9277 40.6477 83.9277 40.6477 84.6291 40.4199 84.8113 40.757 84.8113 40.757 85.8407 41.668 86.1778 41.3491 86.1687 41.3309 87.0979 40.6021 85.9865 40.5019zM82.9256 40.2742S83.2718 39.8369 83.5177 40.2742C83.5177 40.2742 83.1078 40.6386 82.9256 40.2742z" fill="#016766"/></svg>